# xmcd
#
# Track frame offsets: 
#        150
#        12490
#        25065
#        36635
#        48477
#        84302
#        100517
#        114777
#        129075
#        146400
#        162685
#        173622
#        186002
#        195660
#        216860
#        232522
#        244635
#        258587
#        269082
#        284842
#        303127
#
# Disc length: 4337 seconds
#
# Revision: 4
# Processed by: cddbd v1.5.2PL0 Copyright (c) Steve Scherf et al.
# Submitted via: ExactAudioCopyFreeDBPlugin 1.0
#
DISCID=1d10ef15
DTITLE=Various Artist - Glass Onion - Songs of the Beatles
DYEAR=2003
DGENRE=Beatles
TTITLE0=Arif Mardin - Glass Onion
TTITLE1=Ella Fitzgerald - Savoy Truffle
TTITLE2=Herbie Mann And Tamiko Jones - Day Tripper
TTITLE3=The Harvey Averne Dozen - The Word
TTITLE4=Clarence Wheeler And The Enforcers - Hey Jude
TTITLE5=Wade Marcus - Something
TTITLE6=The Meters - Come Together
TTITLE7=Black Heat - Drive My Car
TTITLE8=The Freedom Sounds - All You Need Is Love
TTITLE9=Aretha Franklin - The Long and Winding Road
TTITLE10=King Curtis - And I Love Her
TTITLE11=Carmen McRae - Carry That Weight
TTITLE12=Eddie Cano And Nino Tempo - A Hard Day's Night
TTITLE13=Shirley Scott And The Soul Saxes - Get Back
TTITLE14=Little Richard - I Saw Her Standing There
TTITLE15=Roy Redmond - Good Day Sunshine
TTITLE16=Ella Fitzgerald - Got To Get You Into My Life
TTITLE17=Bill Cosby - Sgt. Pepper's Lonely Heart Club Band
TTITLE18=Aretha Franklin - Let It Be
TTITLE19=David Newman - Yesterday
TTITLE20=Charles Wright - Here Comes The Sun
EXTD=YEAR: 2003
EXTT0=
EXTT1=
EXTT2=
EXTT3=
EXTT4=
EXTT5=
EXTT6=
EXTT7=
EXTT8=
EXTT9=
EXTT10=
EXTT11=
EXTT12=
EXTT13=
EXTT14=
EXTT15=
EXTT16=
EXTT17=
EXTT18=
EXTT19=
EXTT20=
PLAYORDER=
